<svg xmlns="http://www.w3.org/2000/svg" width="1200" height="630" viewBox="0 0 1200 630">
  <defs>
    <linearGradient id="g1" x1="0" x2="1">
      <stop offset="0" stop-color="#6b21a8"/>
      <stop offset="1" stop-color="#0ea5e9"/>
    </linearGradient>
    <filter id="f1" x="-10%" y="-10%" width="120%" height="120%">
      <feGaussianBlur stdDeviation="18" result="b"/>
      <feComposite in="SourceGraphic" in2="b" operator="over"/>
    </filter>
  </defs>
  <rect width="1200" height="630" fill="url(#g1)"/>
  <g transform="translate(60,60)">
    <rect width="1080" height="510" rx="20" fill="rgba(255,255,255,0.04)"/>
    <g transform="translate(40,40)">
      <circle cx="120" cy="120" r="72" fill="rgba(255,255,255,0.08)"/>
      <g transform="translate(120,120) rotate(-15)" fill="#fff" opacity="0.95">
        <circle r="54" fill="#fff" opacity="0.06"/>
        <path d="M-18-8 L-4-22 L4-22 L18-8 L4-8 L4 28 L-4 28 L-4-8 Z" fill="#fff" opacity="0.16"/>
      </g>
      <text x="260" y="48" fill="#fff" font-family="Inter, system-ui, sans-serif" font-size="40" font-weight="700">
        The Impact of Stopwatches on Human Life
      </text>
      <text x="260" y="96" fill="#e6eef6" font-family="Inter, system-ui, sans-serif" font-size="18" font-weight="400">
        How precise timing shapes productivity, sports, mindfulness and daily routines
      </text>
      <rect x="0" y="220" width="920" height="2" fill="rgba(255,255,255,0.06)"/>
      <g transform="translate(0,240)" fill="#fff" opacity="0.9">
        <rect x="0" y="0" rx="10" width="220" height="120" fill="rgba(255,255,255,0.03)"/>
        <rect x="250" y="0" rx="10" width="220" height="120" fill="rgba(255,255,255,0.03)"/>
        <rect x="500" y="0" rx="10" width="220" height="120" fill="rgba(255,255,255,0.03)"/>
      </g>
    </g>
  </g>
</svg>